# xmcd
#
# Track frame offsets: 
#        150
#        31941
#        49357
#        68940
#        96307
#        118681
#        144264
#        176393
#        201966
#        216683
#        250643
#
# Disc length: 3663 seconds
#
# Revision: 0
# Processed by: cddbd v1.5.2PL0 Copyright (c) Steve Scherf et al.
# Submitted via: ExactAudioCopy v1.3
#
DISCID=a50e4d0b
DTITLE=Billy Price - Alive And Strange
DYEAR=2017
DGENRE=blues
TTITLE0=It Ain't A Juke Joint Without The Blues
TTITLE1=Lifestyles Of The Poor And Unknown
TTITLE2=Something Strange
TTITLE3=This Time I'm Gone For Good
TTITLE4=One More Day
TTITLE5=Nothing Stays The Same Forever
TTITLE6=Never Get Enough
TTITLE7=What Have I Done Wrong
TTITLE8=Lickin' Stick
TTITLE9=R.M. Blues
TTITLE10=Makin' Plans
EXTD=
EXTT0=
EXTT1=
EXTT2=
EXTT3=
EXTT4=
EXTT5=
EXTT6=
EXTT7=
EXTT8=
EXTT9=
EXTT10=
PLAYORDER=
